<svg id="Layer_1" data-name="Layer 1" xmlns="http://www.w3.org/2000/svg" viewBox="0 0 743.84 791.53"><defs><style>.cls-1{fill:#fff;}.cls-1,.cls-2,.cls-4,.cls-5,.cls-6,.cls-7{stroke:#000;stroke-miterlimit:10;}.cls-2,.cls-8{fill:#603813;}.cls-3,.cls-5{fill:#42210b;}.cls-4{fill:none;}.cls-6{fill:#a67c52;}.cls-7{fill:#754c24;}</style></defs><title>door</title><path d="M304.61,462.09a1.5,1.5,0,0,0,0-3,1.5,1.5,0,0,0,0,3Z" transform="translate(-303.16 -50.5)"/><rect class="cls-1" x="229.13" y="258" width="408.45" height="488"/><rect class="cls-2" x="266.45" y="745.62" width="332.77" height="7.38"/><polygon class="cls-3" points="638.21 257.84 638.21 756.5 614.84 755.52 459.03 707.42 459.03 278.45 638.21 257.84"/><line class="cls-4" x1="614.83" y1="755.52" x2="459.03" y2="707.42"/><line class="cls-4" x1="459.03" y1="707.42" x2="459.03" y2="278.45"/><line class="cls-4" x1="459.03" y1="278.45" x2="638.21" y2="257.84"/><line class="cls-4" x1="638.21" y1="257.84" x2="638.21" y2="756.5"/><line class="cls-4" x1="638.21" y1="756.5" x2="614.83" y2="755.52"/><polygon class="cls-3" points="408.07 278.45 408.07 707.42 252.26 755.52 228.89 756.5 228.89 257.84 408.07 278.45"/><line class="cls-4" x1="252.26" y1="755.52" x2="408.07" y2="707.42"/><line class="cls-4" x1="408.07" y1="707.42" x2="408.07" y2="278.45"/><line class="cls-4" x1="408.07" y1="278.45" x2="228.89" y2="257.84"/><line class="cls-4" x1="228.89" y1="257.84" x2="228.89" y2="756.5"/><line class="cls-4" x1="228.89" y1="756.5" x2="252.26" y2="755.52"/><rect class="cls-5" x="228.03" y="250.62" width="409.61" height="6.91"/><polygon class="cls-6" points="227.66 746.61 227.66 249.5 161.51 249.5 161.51 746.61 122.34 746.61 122.34 791.03 265.96 791.03 265.96 746.61 227.66 746.61"/><polygon class="cls-6" points="705.03 746.61 705.03 249.5 638.88 249.5 638.88 746.61 599.72 746.61 599.72 791.03 743.33 791.03 743.33 746.61 705.03 746.61"/><line class="cls-4" x1="121.84" y1="769.86" x2="265.45" y2="769.86"/><line class="cls-4" x1="600.22" y1="769.86" x2="743.84" y2="769.86"/><rect class="cls-7" x="175.44" y="266.17" width="36.41" height="472.59"/><rect class="cls-7" x="653.82" y="266.17" width="36.41" height="472.59"/><path class="cls-6" d="M464.65,300c0-137.52,121.78-249,272-249s272,111.48,272,249" transform="translate(-303.16 -50.5)"/><path class="cls-7" d="M523.65,301c0-107.14,94.88-194,211.91-194s211.92,86.86,211.92,194" transform="translate(-303.16 -50.5)"/><polygon class="cls-8" points="396.67 302.56 396.67 677.59 260.45 719.64 240.02 720.5 240.02 284.54 396.67 302.56"/><line class="cls-4" x1="260.45" y1="719.64" x2="396.67" y2="677.59"/><line class="cls-4" x1="396.67" y1="677.59" x2="396.67" y2="302.56"/><line class="cls-4" x1="396.67" y1="302.56" x2="240.02" y2="284.54"/><line class="cls-4" x1="240.02" y1="284.54" x2="240.02" y2="720.5"/><line class="cls-4" x1="240.02" y1="720.5" x2="260.45" y2="719.64"/><polygon class="cls-8" points="470.16 301.55 470.16 676.59 606.37 718.64 626.8 719.5 626.8 283.54 470.16 301.55"/><line class="cls-4" x1="606.37" y1="718.64" x2="470.16" y2="676.59"/><line class="cls-4" x1="470.16" y1="676.59" x2="470.16" y2="301.55"/><line class="cls-4" x1="470.16" y1="301.55" x2="626.8" y2="283.54"/><line class="cls-4" x1="626.8" y1="283.54" x2="626.8" y2="719.5"/><line class="cls-4" x1="626.8" y1="719.5" x2="606.37" y2="718.64"/><path d="M689.8,542.59c-2.34-3.07-5.8-6.68-10-4.7-3.4,1.58-3.25,5-.78,7.23,1.37,1.24,1.63,1.29,2.13,3,.9,3-.25,6.06-1.07,8.93-.57,2-1.28,4.32.14,6.17,1.68,2.2,5.35,2.42,6.63-.21.84-1.73-1.75-3.25-2.59-1.52-.89.76-1.32.46-1.3-.9a2.33,2.33,0,0,1,0-2.74c.19-1,.73-2,1-3a18.14,18.14,0,0,0,.23-6.65c-.25-1.71-1.12-3-1.59-4.41-.08-.25-1-.66-1-.75l2.63-2a12.68,12.68,0,0,1,3,3.16c1.16,1.51,3.77,0,2.59-1.52Z" transform="translate(-303.16 -50.5)"/><path d="M784.51,544.11a9.77,9.77,0,0,1,2.22-2.44c1.09-1.42,2.24-1,3.45,1.28,0,.11-.6.19-.66.38-.45,1.65-1.6,2.73-1.91,4.78a18.33,18.33,0,0,0,.08,5.82c.23,1.31.93,2.58,1.11,3.88.12.89-.13,6-1.29,3.64-.84-1.73-3.43-.21-2.59,1.52,1.28,2.63,5,2.41,6.63.21,1.43-1.87.69-4.16.14-6.17-.69-2.56-1.4-4.72-1.19-7.46.2-2.48.5-2.81,2.25-4.43,2.43-2.25,2.66-5.63-.78-7.23-4.25-2-7.7,1.63-10.05,4.7-1.17,1.54,1.44,3,2.59,1.52Z" transform="translate(-303.16 -50.5)"/><line class="cls-4" x1="433.36" y1="1" x2="433.36" y2="56"/><line class="cls-4" x1="540.13" y1="21" x2="516.29" y2="72"/><line class="cls-4" x1="326.58" y1="20" x2="354.57" y2="70"/><line class="cls-4" x1="627.21" y1="74" x2="582.64" y2="114"/><line class="cls-4" x1="239.5" y1="74" x2="284.08" y2="112"/><line class="cls-4" x1="233.28" y1="183" x2="178.34" y2="163"/><line class="cls-4" x1="633.43" y1="188" x2="688.38" y2="163"/><path class="cls-5" d="M553.83,300c0-91.13,80.7-165,180.24-165s180.24,73.87,180.24,165" transform="translate(-303.16 -50.5)"/></svg>