<svg id="Layer_1" data-name="Layer 1" xmlns="http://www.w3.org/2000/svg" xmlns:xlink="http://www.w3.org/1999/xlink" viewBox="0 0 1448.55 950.27"><defs><style>.cls-1{fill:#39b54a;}.cls-2{fill:url(#linear-gradient);}.cls-3{fill:url(#linear-gradient-2);}.cls-4{fill:url(#linear-gradient-3);}.cls-5{fill:url(#linear-gradient-4);}</style><linearGradient id="linear-gradient" x1="236.43" y1="-170.04" x2="254.92" y2="-170.04" gradientTransform="translate(3.7 326.96) rotate(-22.02)" gradientUnits="userSpaceOnUse"><stop offset="0" stop-color="#007f16"/><stop offset="1" stop-color="#17e900"/></linearGradient><linearGradient id="linear-gradient-2" x1="943.28" y1="944.62" x2="961.77" y2="944.62" gradientTransform="translate(1440.35 358.51) rotate(141.15)" xlink:href="#linear-gradient"/><linearGradient id="linear-gradient-3" x1="1144.52" y1="839.53" x2="1163.01" y2="839.53" gradientTransform="translate(241.46 -173.12) rotate(0.43)" xlink:href="#linear-gradient"/><linearGradient id="linear-gradient-4" x1="435.68" y1="-248.86" x2="454.17" y2="-248.86" gradientTransform="translate(1440.35 358.51) rotate(141.15)" xlink:href="#linear-gradient"/></defs><title>morevine</title><path class="cls-1" d="M.71,301.68c-7-31.13,5.82-61.32,30.24-81,23.69-19.06,53.13-27.89,81.22-38.21,27.11-10,54.34-22.26,72.69-45.47,7.75-9.79,13.75-21.19,16.08-33.54,2.93-15.51-2.13-29.71-3.67-45-.79-7.85-.1-16.45,4.13-23.32,5.11-8.27,14.57-10.55,23.24-13.32L281.89,3.49c1.83-.59,1.05-3.48-.8-2.89L228.53,17.44c-12.84,4.11-26.74,7.09-32.06,21-5.45,14.27-.33,29.11,1.79,43.47,2.33,15.75-1.34,31.05-9.64,44.56-34.17,55.61-109.93,53.24-158,90.66C4.37,237.6-9.65,269.35-2.18,302.48c.42,1.88,3.31,1.09,2.89-.8Z" transform="translate(6.5 24.77)"/><path class="cls-1" d="M-3.49,206.77c3.49-8.53,13.61-10,21.63-8.18s15.77,6.12,23.32,9.49c7.14,3.2,14.22,6.74,21.54,9.5,5.87,2.23,12,3.18,18,.72,11.4-4.72,19-16.92,23.86-27.64,5.72-12.52,9.29-25.89,14.79-38.51s12.63-24.91,22.44-34.74c8.83-8.85,19.69-14.77,31-19.83,19.11-8.53,41.72-15.13,54.69-32.75,19.05-25.89,2.75-59.49,13.33-87.78.68-1.82-2.22-2.6-2.89-.8-9.82,26.27,4.07,56.67-9.65,81.78-11.27,20.63-36.31,27.78-56.38,36.69-10.28,4.57-20.34,9.81-28.79,17.33-10,8.85-17.47,20.17-23.31,32.06-5.93,12.06-9.81,24.87-14.63,37.37-4.88,12.67-12.24,28.5-25.63,34-9.94,4.1-20.79-2.84-29.71-6.82-7.9-3.53-15.73-7.3-23.75-10.52C15.05,193.62-.87,192.49-6.38,206c-.73,1.79,2.17,2.57,2.89.8Z" transform="translate(6.5 24.77)"/><path class="cls-1" d="M1434.85,599.05c7,31.13-5.83,61.32-30.24,81-23.7,19.06-53.13,27.89-81.22,38.21-27.11,10-54.34,22.26-72.7,45.47-7.75,9.79-13.74,21.19-16.08,33.53-2.93,15.52,2.14,29.72,3.68,45,.79,7.85.1,16.45-4.14,23.31-5.1,8.28-14.56,10.55-23.23,13.33l-57.25,18.35c-1.83.58-1.05,3.48.8,2.89L1207,883.29c12.84-4.12,26.74-7.09,32.06-21,5.46-14.27.34-29.11-1.79-43.47-2.32-15.75,1.35-31,9.65-44.56,34.17-55.62,109.93-53.25,158-90.67,26.26-20.45,40.29-52.2,32.82-85.32-.43-1.88-3.32-1.09-2.89.8Z" transform="translate(6.5 24.77)"/><path class="cls-1" d="M1439,694c-3.48,8.52-13.61,10-21.62,8.18s-15.77-6.12-23.32-9.5c-7.14-3.19-14.22-6.73-21.54-9.5-5.87-2.22-12-3.17-18-.71-11.4,4.72-19,16.92-23.86,27.64-5.71,12.52-9.28,25.89-14.79,38.5s-12.62,24.91-22.44,34.75c-8.82,8.85-19.68,14.77-31,19.82-19.1,8.54-41.71,15.14-54.68,32.76-19.06,25.89-2.76,59.49-13.34,87.78-.67,1.81,2.23,2.6,2.9.8,9.82-26.27-4.07-56.67,9.65-81.78,11.27-20.63,36.31-27.79,56.37-36.69,10.28-4.57,20.34-9.81,28.8-17.33,10-8.85,17.46-20.17,23.31-32.06,5.93-12.07,9.8-24.87,14.62-37.37,4.88-12.67,12.24-28.5,25.64-34,9.94-4.1,20.79,2.83,29.71,6.82,7.89,3.53,15.72,7.3,23.74,10.52,11.29,4.54,27.22,5.67,32.73-7.82.73-1.78-2.18-2.56-2.9-.79Z" transform="translate(6.5 24.77)"/><path class="cls-2" d="M161.44,88.87l-6.61-26.74a1.88,1.88,0,0,1,3.25-1.68l17.07,19.64s2.06,15.12-1.8,16.91C170.08,98.51,161.44,88.87,161.44,88.87Z" transform="translate(6.5 24.77)"/><path class="cls-3" d="M108.63,207.46l14.07,23.67a1.88,1.88,0,0,1-2.62,2.56l-22-13.86s-6.36-13.88-3.18-16.7C97.56,200.73,108.63,207.46,108.63,207.46Z" transform="translate(6.5 24.77)"/><path class="cls-4" d="M1378.63,683.43l4.1-27.24a1.89,1.89,0,0,1,3.65-.32l8.27,24.68s-3.87,14.76-8.11,14.94C1382.94,695.64,1378.63,683.43,1378.63,683.43Z" transform="translate(6.5 24.77)"/><path class="cls-5" d="M1252.63,818.46l14.07,23.67a1.88,1.88,0,0,1-2.62,2.56l-22-13.86s-6.36-13.88-3.18-16.7C1241.56,811.73,1252.63,818.46,1252.63,818.46Z" transform="translate(6.5 24.77)"/></svg>