<svg id="Layer_1" data-name="Layer 1" xmlns="http://www.w3.org/2000/svg" viewBox="0 0 91.8 210.26"><defs><style>.cls-1{fill:#37c6c0;}</style></defs><title>questionmark</title><path class="cls-1" d="M716.71,504.11a125.11,125.11,0,0,1,2.07-23.82,145.76,145.76,0,0,1,5-19.33q3-8.7,6.4-16.31t6.26-15.11a122.52,122.52,0,0,0,4.72-15.7,80.64,80.64,0,0,0,1.89-18.25,63.68,63.68,0,0,0-1.89-16.46,37.41,37.41,0,0,0-5.35-12,25.61,25.61,0,0,0-8.31-7.73A26.62,26.62,0,0,0,716.71,356a30.94,30.94,0,0,0-9.74.58,22.1,22.1,0,0,0-8,3.46,18.26,18.26,0,0,0-5.38,6,16.16,16.16,0,0,0-2,8,17,17,0,0,0,1.4,7.41,49.73,49.73,0,0,0,3,5.32q1.56,2.46,2.93,5a12.9,12.9,0,0,1,1.37,6.23q0,6.57-3.12,10.45a9.64,9.64,0,0,1-7.69,4,11.29,11.29,0,0,1-6-1.64,15.91,15.91,0,0,1-5-4.85,25.4,25.4,0,0,1-3.36-7.48,35.19,35.19,0,0,1-1.2-9.46c0-8.74,1.62-16.11,4.84-22.06A39,39,0,0,1,690.86,353a41.92,41.92,0,0,1,15.73-6.64,52.06,52.06,0,0,1,16-.78,53.09,53.09,0,0,1,18.14,5.23,44.48,44.48,0,0,1,13.5,10.29,44,44,0,0,1,8.45,14.58,54.66,54.66,0,0,1,3,18.49,56.45,56.45,0,0,1-3,18.6,101.36,101.36,0,0,1-7.55,16.73q-4.63,8.21-10.14,16.38T734.49,463a116.55,116.55,0,0,0-8.42,18.89,64.69,64.69,0,0,0-3.45,21.18Zm4,17.86a10.24,10.24,0,0,1,5.3.19,10,10,0,0,1,4.21,2.65,13.61,13.61,0,0,1,2.83,4.52,16.45,16.45,0,0,1,1,6,21.29,21.29,0,0,1-1,6.57,22.72,22.72,0,0,1-2.83,5.86,20.5,20.5,0,0,1-4.21,4.58,14.42,14.42,0,0,1-5.3,2.7,11.08,11.08,0,0,1-5.47.15,10.08,10.08,0,0,1-4.51-2.4,12.31,12.31,0,0,1-3.07-4.58,16.84,16.84,0,0,1-1.14-6.36,20.64,20.64,0,0,1,1.14-6.82,24.37,24.37,0,0,1,3.07-6,19,19,0,0,1,4.51-4.6A14.26,14.26,0,0,1,720.71,522Z" transform="translate(-673.88 -345.23)"/></svg>