<svg id="Layer_1" data-name="Layer 1" xmlns="http://www.w3.org/2000/svg" xmlns:xlink="http://www.w3.org/1999/xlink" viewBox="0 0 570.45 547.12"><defs><style>.cls-1{fill:url(#linear-gradient);}.cls-2{fill:url(#linear-gradient-2);}.cls-3{fill:url(#linear-gradient-3);}.cls-4{fill:url(#linear-gradient-4);}.cls-5{fill:url(#linear-gradient-5);}.cls-6{fill:url(#linear-gradient-6);}.cls-7{fill:url(#linear-gradient-7);}.cls-8{fill:url(#linear-gradient-8);}.cls-9{fill:url(#linear-gradient-9);}.cls-10{fill:#28a24c;}.cls-11{fill:url(#linear-gradient-10);}.cls-12{fill:url(#linear-gradient-11);}.cls-13{fill:url(#linear-gradient-12);}.cls-14{fill:url(#linear-gradient-13);}.cls-15{fill:url(#linear-gradient-14);}.cls-16{fill:url(#linear-gradient-15);}.cls-17{fill:url(#linear-gradient-16);}.cls-18{fill:url(#linear-gradient-17);}.cls-19{fill:url(#linear-gradient-18);}.cls-20{fill:url(#linear-gradient-19);}.cls-21{fill:url(#linear-gradient-20);}.cls-22{fill:url(#linear-gradient-21);}</style><linearGradient id="linear-gradient" x1="445.52" y1="412.91" x2="464.01" y2="412.91" gradientTransform="matrix(0.99, 0.15, 0.15, -0.99, -9.81, 596.22)" gradientUnits="userSpaceOnUse"><stop offset="0.09" stop-color="#39b54a"/><stop offset="0.68" stop-color="#8cc63f"/></linearGradient><linearGradient id="linear-gradient-2" x1="403.37" y1="148.21" x2="421.86" y2="148.21" gradientTransform="matrix(-0.62, 0.79, 0.79, 0.62, 587.96, -76.62)" xlink:href="#linear-gradient"/><linearGradient id="linear-gradient-3" x1="518.15" y1="228.2" x2="536.64" y2="228.2" gradientTransform="matrix(0.82, -0.57, -0.57, -0.82, 189.63, 926.72)" xlink:href="#linear-gradient"/><linearGradient id="linear-gradient-4" x1="460.18" y1="138.07" x2="478.67" y2="138.07" xlink:href="#linear-gradient"/><linearGradient id="linear-gradient-5" x1="550.71" y1="-156.81" x2="569.2" y2="-156.81" gradientTransform="matrix(-0.97, 0.24, 0.24, 0.97, 1035.16, 599.5)" xlink:href="#linear-gradient"/><linearGradient id="linear-gradient-6" x1="584.26" y1="-56.19" x2="602.75" y2="-56.19" gradientTransform="matrix(-0.89, -0.45, -0.45, 0.89, 994.69, 975.74)" xlink:href="#linear-gradient"/><linearGradient id="linear-gradient-7" x1="397.49" y1="483.39" x2="415.98" y2="483.39" gradientTransform="matrix(0.73, 0.03, 0.2, -0.77, 88.14, 558.26)" xlink:href="#linear-gradient"/><linearGradient id="linear-gradient-8" x1="607.61" y1="216.14" x2="620.17" y2="216.14" gradientTransform="matrix(-0.99, -0.14, -0.14, 0.99, 1247.51, 103.59)" xlink:href="#linear-gradient"/><linearGradient id="linear-gradient-9" x1="575.2" y1="465.72" x2="587.76" y2="465.72" gradientTransform="matrix(0.35, -0.94, -0.94, -0.35, 895.21, 963.34)" xlink:href="#linear-gradient"/><linearGradient id="linear-gradient-10" x1="446.39" y1="411.01" x2="464.87" y2="411.01" gradientTransform="translate(1450.39 596.22) rotate(171.53)" xlink:href="#linear-gradient"/><linearGradient id="linear-gradient-11" x1="404.6" y1="149.9" x2="423.08" y2="149.9" gradientTransform="translate(852.62 -76.62) rotate(52.05)" xlink:href="#linear-gradient"/><linearGradient id="linear-gradient-12" x1="517.49" y1="226.23" x2="535.97" y2="226.23" gradientTransform="matrix(-0.82, -0.57, 0.57, -0.82, 1250.95, 926.72)" xlink:href="#linear-gradient"/><linearGradient id="linear-gradient-13" x1="461.05" y1="136.17" x2="479.54" y2="136.17" gradientTransform="translate(1450.39 596.22) rotate(171.53)" xlink:href="#linear-gradient"/><linearGradient id="linear-gradient-14" x1="550.64" y1="-154.73" x2="569.13" y2="-154.73" gradientTransform="translate(405.42 599.5) rotate(14.11)" xlink:href="#linear-gradient"/><linearGradient id="linear-gradient-15" x1="582.84" y1="-54.67" x2="601.33" y2="-54.67" gradientTransform="translate(445.89 975.74) rotate(-26.98)" xlink:href="#linear-gradient"/><linearGradient id="linear-gradient-16" x1="398.97" y1="480.85" x2="417.46" y2="480.85" gradientTransform="matrix(-0.73, 0.03, -0.2, -0.77, 1352.44, 558.26)" xlink:href="#linear-gradient"/><linearGradient id="linear-gradient-17" x1="606.76" y1="218.04" x2="619.32" y2="218.04" gradientTransform="matrix(0.99, -0.14, 0.14, 0.99, 193.07, 103.59)" xlink:href="#linear-gradient"/><linearGradient id="linear-gradient-18" x1="573.53" y1="464.48" x2="586.09" y2="464.48" gradientTransform="translate(545.36 963.34) rotate(-110.47)" xlink:href="#linear-gradient"/><linearGradient id="linear-gradient-19" x1="731.75" y1="381.31" x2="740.41" y2="381.31" gradientTransform="translate(861.71 1100.26) rotate(-126.03)" gradientUnits="userSpaceOnUse"><stop offset="0" stop-color="#007f16"/><stop offset="1" stop-color="#17e900"/></linearGradient><linearGradient id="linear-gradient-20" x1="560.13" y1="442.53" x2="568.82" y2="442.53" gradientTransform="translate(1423.66 270.22) rotate(134.05)" xlink:href="#linear-gradient-19"/><linearGradient id="linear-gradient-21" x1="612.65" y1="398.29" x2="621.33" y2="398.29" gradientTransform="translate(1376.72 760.86) rotate(173.71)" xlink:href="#linear-gradient-19"/></defs><title>vine</title><path class="cls-1" d="M492,245l-.17,27.54a1.89,1.89,0,0,0,3.56.88l12-23.1s-1.53-15.18-5.7-16C498.15,233.59,492,245,492,245Z" transform="translate(-434.77 -175.95)"/><path class="cls-2" d="M464,337l-23.9-13.7a1.88,1.88,0,0,0-2.51,2.66l14.2,21.81s14,6.14,16.75,2.92C470.87,348,464,337,464,337Z" transform="translate(-434.77 -175.95)"/><path class="cls-3" d="M479.16,437.15l18.76,20.17a1.88,1.88,0,0,0,3.19-1.8l-7.11-25s-11.52-10-15.13-7.75C475.82,424.65,479.16,437.15,479.16,437.15Z" transform="translate(-434.77 -175.95)"/><path class="cls-4" d="M466,519l-.17,27.54a1.89,1.89,0,0,0,3.56.88l12-23.1s-1.53-15.18-5.7-16C472.15,507.59,466,519,466,519Z" transform="translate(-434.77 -175.95)"/><path class="cls-5" d="M465.81,589.6l-10.42-25.49a1.88,1.88,0,0,0-3.62.55l-2.21,25.93S456.81,604,461,603.19C464.51,602.49,465.81,589.6,465.81,589.6Z" transform="translate(-434.77 -175.95)"/><path class="cls-6" d="M496.5,668.58l8.9-26.06a1.88,1.88,0,0,0-3.09-2L483.6,658.65s-3.36,14.89.33,17C487.06,677.44,496.5,668.58,496.5,668.58Z" transform="translate(-434.77 -175.95)"/><path class="cls-7" d="M472.21,190l-2.5,21.13c-.18,1.52,1.75,1.79,2.58.37l10.95-18.75s.17-11.51-2.88-11.79C477.78,180.72,472.21,190,472.21,190Z" transform="translate(-434.77 -175.95)"/><path class="cls-8" d="M615,236.15l0-18.71a1.28,1.28,0,0,0-2.42-.59l-8.09,15.72s1.09,10.32,3.92,10.87C610.86,243.91,615,236.15,615,236.15Z" transform="translate(-434.77 -175.95)"/><path class="cls-9" d="M654.48,260.18l18.28,4a1.28,1.28,0,0,0,1.09-2.24l-13.66-11.23s-10.3-1.13-11.45,1.53C647.78,254.49,654.48,260.18,654.48,260.18Z" transform="translate(-434.77 -175.95)"/><path class="cls-10" d="M448,719.25c-2.09-5.58-4.46-12.2-.51-17.52,3.24-4.35,9.24-7.5,13.78-10.38,9.32-5.9,19.12-11,28.77-16.32,6.78-3.75,43-21,26.83-32.38-1.58-1.11-3.08,1.49-1.52,2.59,10.37,7.34-15.21,20.58-20,23.35-8.8,5.09-17.84,9.74-26.66,14.8-7.56,4.35-16.44,8.91-22.56,15.26-5.86,6.09-3.66,14.34-1,21.4.67,1.79,3.57,1,2.89-.8Z" transform="translate(-434.77 -175.95)"/><path class="cls-10" d="M447.53,626.71c-4.29-18.93,20-24.88,32.76-30.19,7.54-3.15,14.44-7.54,21.27-12,5.8-3.77,11.28-7.6,15.54-13.13,1.18-1.53-1.43-3-2.59-1.51-5.9,7.66-15.18,12.78-23.37,17.68-7.77,4.65-16,7.54-24.39,10.84-12,4.71-25.46,14.33-22.11,29.09.43,1.88,3.32,1.09,2.89-.8Z" transform="translate(-434.77 -175.95)"/><path class="cls-10" d="M447.85,543.91c-.63-4.93-1.46-10.63.9-15.22,2.9-5.62,10.53-8.7,15.76-11.84l32-19.27,15.15-9.12c3.54-2.13,8.38-4.15,10.61-7.86,2.63-4.36-1.18-11.15-6.42-8.25-1.69.93-.18,3.52,1.52,2.59q3.71,5.08-.9,7.1c-1,.61-2,1.21-3,1.8q-3.36,2-6.74,4.06L495,495l-26.1,15.72c-4.2,2.53-8.42,5.06-12.62,7.6-3.05,1.84-6.36,3.6-8.61,6.45-4.3,5.41-3.62,12.73-2.8,19.15.25,1.89,3.25,1.91,3,0Z" transform="translate(-434.77 -175.95)"/><path class="cls-10" d="M447.23,461.91c-6.81-2.22-4.42-10.57-.78-14.46,3.39-3.61,8-6.28,12.07-9,9.12-6.05,18.54-11.63,28-17.08,11.17-6.42,36.89-16.35,29.69-33.83-.73-1.76-3.63-1-2.89.79,5.29,12.84-10.48,20.29-19.35,25.33-10.6,6-21.2,12.08-31.49,18.63-7.19,4.57-18,9.74-21.62,18-2.46,5.54-.51,12.55,5.55,14.52,1.84.6,2.63-2.3.79-2.89Z" transform="translate(-434.77 -175.95)"/><path class="cls-10" d="M447.39,378.13c-11.29-10.26,12.48-21.32,19.09-25.06,10-5.65,20.11-11.13,29.71-17.46,7.78-5.13,17.23-11,22-19.29,3.6-6.33,3.46-14.9-2.62-19.62-1.51-1.16-3.65.94-2.13,2.13,12.12,9.38-3.06,22.89-10.79,28.64-9.22,6.85-19.17,12.61-29.16,18.24-8.81,5-19.63,9.35-26.9,16.52-4.87,4.81-6.88,12.95-1.29,18,1.42,1.29,3.55-.82,2.12-2.12Z" transform="translate(-434.77 -175.95)"/><path class="cls-10" d="M446,271c-3.38-2.35-8.26-5.79-8.21-10.46,0-4.84,6-9,9.7-11.22,6.45-3.87,13.92-5.67,21.25-7,8.1-1.45,16.28-2.48,24.42-3.68,7.78-1.14,16.39-1.41,23.58-4.79,1.75-.83.23-3.41-1.51-2.59-5.31,2.5-11.52,2.82-17.26,3.66l-16.82,2.47c-9.43,1.39-19.11,2.48-28.07,5.93-6.44,2.48-14.76,6.94-17.55,13.72-3,7.2,3.69,12.88,9,16.54,1.59,1.1,3.09-1.5,1.51-2.59Z" transform="translate(-434.77 -175.95)"/><path class="cls-10" d="M450.24,195.31c-4.31-4.43-1.55-11.14,3.24-13.91,4.18-2.42,9.29-2.59,14-2.4a77.5,77.5,0,0,1,26,6.09c16.7,6.82,31.44,17.56,46.77,26.9,33.24,20.24,70.95,32.47,108.34,42.54a1.5,1.5,0,0,0,.8-2.89c-34.66-9.34-69.72-20.47-101-38.34-25.84-14.75-51.19-37-82.5-37.34-6.54-.09-14.36,1.09-18.39,6.88-3.15,4.52-3.24,10.57.67,14.6,1.35,1.38,3.47-.74,2.12-2.13Z" transform="translate(-434.77 -175.95)"/><path class="cls-11" d="M948,247l.17,27.54a1.89,1.89,0,0,1-3.56.88l-12-23.1s1.53-15.18,5.7-16C941.85,235.59,948,247,948,247Z" transform="translate(-434.77 -175.95)"/><path class="cls-12" d="M976,339l23.9-13.7a1.88,1.88,0,0,1,2.51,2.66l-14.2,21.81s-14,6.14-16.75,2.92C969.13,350,976,339,976,339Z" transform="translate(-434.77 -175.95)"/><path class="cls-13" d="M960.84,439.15l-18.76,20.17a1.88,1.88,0,0,1-3.19-1.8l7.11-25s11.52-10,15.13-7.75C964.18,426.65,960.84,439.15,960.84,439.15Z" transform="translate(-434.77 -175.95)"/><path class="cls-14" d="M974,521l.17,27.54a1.89,1.89,0,0,1-3.56.88l-12-23.1s1.53-15.18,5.7-16C967.85,509.59,974,521,974,521Z" transform="translate(-434.77 -175.95)"/><path class="cls-15" d="M974.19,591.6l10.42-25.49a1.88,1.88,0,0,1,3.62.55l2.21,25.93S983.19,606,979,605.19C975.49,604.49,974.19,591.6,974.19,591.6Z" transform="translate(-434.77 -175.95)"/><path class="cls-16" d="M943.5,670.58l-8.9-26.06a1.88,1.88,0,0,1,3.09-2l18.71,18.09s3.36,14.89-.33,17C952.94,679.44,943.5,670.58,943.5,670.58Z" transform="translate(-434.77 -175.95)"/><path class="cls-17" d="M967.79,192l2.5,21.13c.18,1.52-1.75,1.79-2.58.37l-11-18.75s-.17-11.51,2.88-11.79C962.22,182.72,967.79,192,967.79,192Z" transform="translate(-434.77 -175.95)"/><path class="cls-18" d="M825,238.15l0-18.71a1.28,1.28,0,0,1,2.42-.59l8.09,15.72s-1.09,10.32-3.92,10.87C829.14,245.91,825,238.15,825,238.15Z" transform="translate(-434.77 -175.95)"/><path class="cls-19" d="M785.52,262.18l-18.28,4a1.28,1.28,0,0,1-1.09-2.24l13.66-11.23s10.3-1.13,11.45,1.53C792.22,256.49,785.52,262.18,785.52,262.18Z" transform="translate(-434.77 -175.95)"/><path class="cls-10" d="M994.89,722.05c2.54-6.77,4.81-14.82-.55-20.87-6-6.7-15.37-11.38-23-15.79-8.57-4.92-17.35-9.45-25.91-14.37-4.86-2.79-31.22-16.37-20.75-23.78,1.56-1.1.06-3.7-1.52-2.59C907,656.07,943.17,673.28,950,677c9.39,5.2,18.94,10.15,28,15.86,4.61,2.9,10,5.91,13.75,9.88,5,5.27,2.46,12.56.25,18.48-.68,1.82,2.22,2.6,2.89.8Z" transform="translate(-434.77 -175.95)"/><path class="cls-10" d="M995.36,629.51c3.35-14.76-10.14-24.38-22.11-29.09-8.39-3.31-16.61-6.18-24.39-10.84-8.19-4.9-17.47-10-23.37-17.68-1.16-1.51-3.77,0-2.59,1.51,4.25,5.52,9.75,9.36,15.54,13.13,6.83,4.45,13.73,8.83,21.27,12,12.73,5.3,37.06,11.25,32.76,30.19-.43,1.88,2.46,2.69,2.89.8Z" transform="translate(-434.77 -175.95)"/><path class="cls-10" d="M995.15,545.91c.82-6.36,1.49-13.59-2.68-19-2.26-2.93-5.62-4.72-8.73-6.6-4.2-2.54-8.42-5.07-12.62-7.6L945.86,497.5l-12.62-7.6q-3.37-2-6.74-4.06c-1-.59-2-1.19-3-1.8q-4.6-2-.9-7.1c1.69.93,3.21-1.66,1.52-2.59-4.79-2.65-9,3.25-6.8,7.65,1.89,3.82,6.72,5.89,10.15,7.95l16,9.63,31.14,18.76c5.09,3.06,12.78,6.12,16.06,11.26,3,4.73,2.12,11,1.44,16.31-.25,1.91,2.75,1.89,3,0Z" transform="translate(-434.77 -175.95)"/><path class="cls-10" d="M993.56,466.8c5.76-1.87,7.92-8.41,5.84-13.87-3.29-8.62-14.65-14-21.91-18.64-10-6.38-20.35-12.29-30.68-18.17-9-5.11-25.57-12.65-20.16-25.79.74-1.78-2.16-2.56-2.89-.79-7.2,17.48,18.52,27.41,29.69,33.83,9.22,5.3,18.37,10.72,27.25,16.56,4.19,2.76,8.8,5.44,12.36,9,3.83,3.84,6.92,12.62-.29,15-1.83.59-1,3.49.79,2.89Z" transform="translate(-434.77 -175.95)"/><path class="cls-10" d="M994.73,382.25c5.59-5.08,3.57-13.2-1.29-18-7.24-7.18-18.11-11.57-26.9-16.52-10-5.63-19.95-11.38-29.16-18.24-7.72-5.75-22.91-19.25-10.79-28.64,1.52-1.19-.62-3.29-2.13-2.13-6.09,4.73-6.21,13.28-2.62,19.62,4.71,8.31,14.21,14.17,22,19.29,9.6,6.33,19.71,11.81,29.71,17.46,4.89,2.76,10,5.41,14.58,8.65,5,3.54,10.49,11,4.51,16.41-1.43,1.3.7,3.41,2.12,2.12Z" transform="translate(-434.77 -175.95)"/><path class="cls-10" d="M995.54,275.55c5.24-3.64,11.78-9.2,9-16.36-2.64-6.87-11.19-11.42-17.62-13.9-8.67-3.33-18-4.45-27.14-5.79L943,237c-6-.88-12.62-1.18-18.19-3.8-1.73-.82-3.26,1.76-1.51,2.59,7.2,3.39,15.78,3.64,23.58,4.79,8.14,1.2,16.32,2.23,24.42,3.68,7.33,1.32,14.81,3.11,21.25,7,3.79,2.29,9.61,6.31,9.7,11.22.09,4.66-4.84,8.12-8.21,10.46-1.57,1.09-.08,3.69,1.51,2.59Z" transform="translate(-434.77 -175.95)"/><path class="cls-10" d="M991.88,199.44a11,11,0,0,0,1.73-12.76c-2.51-5.18-8-7.59-13.39-8.37-14.07-2-29,3-41.47,9-14.43,6.92-27.52,16.24-41.18,24.51a294.92,294.92,0,0,1-48,23,611,611,0,0,1-59,18.81,1.5,1.5,0,0,0,.8,2.89c37.39-10.07,75.1-22.3,108.34-42.54,15.33-9.34,30.07-20.08,46.77-26.9a77.5,77.5,0,0,1,26-6.09c4.7-.19,9.81,0,14,2.4,4.79,2.77,7.55,9.48,3.24,13.91-1.35,1.39.77,3.51,2.12,2.13Z" transform="translate(-434.77 -175.95)"/><path class="cls-20" d="M743.11,282.23l-11.41,6a.89.89,0,0,1-1.14-1.29l7-10s6.64-2.65,7.89-1.1C746.51,277.21,743.11,282.23,743.11,282.23Z" transform="translate(-434.77 -175.95)"/><path class="cls-21" d="M713.6,362l7.94,10.23a.89.89,0,0,1-1.08,1.34l-11.08-5.19s-3.77-6.1-2.45-7.6C708.05,359.5,713.6,362,713.6,362Z" transform="translate(-434.77 -175.95)"/><path class="cls-22" d="M724.14,428.1,723.72,441a.88.88,0,0,1-1.68.35l-5.22-11.06s1-7.1,3-7.42C721.46,422.63,724.14,428.1,724.14,428.1Z" transform="translate(-434.77 -175.95)"/></svg>